~*~*~*~*~*~October Sky (1999) DVD Rip (Shy_Rage)~*~*~*~*~*~


~*~*~*~*~*~Movie Info~*~*~*~*~*~

The true story of Homer Hickam, a coal miner's son who was inspired by the first Sputnik launch to take up rocketry 

against his father's wishes.


IMDB RATINGS: - 7/10

~*~*~*~*~*~*~*~*~*~*~*~*~*~*~*~*~


Director:      Joe Johnston

Writers:       Homer H. Hickam Jr. (book), Lewis Colick (screenplay)



Cast: - 

Jake Gyllenhaal	  ...	 Homer Hickam

Chris Cooper	  ...	 John Hickam

Laura Dern	  ...    Miss Riley

Chris Owen	  ...	 Quentin

William Lee Scott ...	 Roy Lee

Chad Lindberg	  ...	 O'Dell

Natalie Canerday  ...	 Elsie Hickam

Scott Miles	  ...	 Jim Hickam


=====================================================

~*~*~*~*~*~*~*~*~*~*~*~~*~*~*~*~*~*~*~*~*~*~*~

======================================================

General
Complete name                    : October Sky
Format                           : AVI
Format/Info                      : Audio Video Interleave
File size                        : 697 MiB
Duration                         : 1h 46mn
Overall bit rate                 : 915 Kbps
Writing library                  : VirtualDub build 0/release

Video
ID                               : 0
Format                           : MPEG-4 Visual
Codec ID                         : DIV3
Codec ID/Hint                    : DivX 3 Low
Duration                         : 1h 46mn
Bit rate                         : 824 Kbps
Width                            : 576 pixels
Height                           : 226 pixels
Display aspect ratio             : 2.549
Frame rate                       : 23.976 fps
Color space                      : YUV
Chroma subsampling               : 4:2:0
Bit depth                        : 8 bits
Compression mode                 : Lossy
Bits/(Pixel*Frame)               : 0.264
Stream size                      : 628 MiB (90%)

Audio
ID                               : 1
Format                           : MPEG Audio
Format version                   : Version 1
Format profile                   : Layer 3
Mode                             : Joint stereo
Mode extension                   : MS Stereo
Codec ID                         : 55
Codec ID/Hint                    : MP3
Duration                         : 1h 46mn
Bit rate mode                    : Variable
Bit rate                         : 80.0 Kbps
Channel(s)                       : 2 channels
Sampling rate                    : 44.1 KHz
Compression mode                 : Lossy
Stream size                      : 60.3 MiB (9%)
Alignment                        : Aligned on interleaves
Interleave, duration             : 26 ms (0.63 video frame)
Interleave, preload duration     : 200 ms


~*~*~*~*~*~ English Subtitles (Softcoded) file included ~*~*~*~*~*~


======================================================================
~*~*~*~*~*~~*~*~*~*~*~~*~*~*~*~*~~*~*~*~*~*~~*~*~*~*~*~~*~*~*~*~*~~*~*
======================================================================


PLEASE SEED AND RATE MY TORRENTS!!!